<!-- SVG Sprite -->
   <svg  style="display: none;"  xmlns="http://www.w3.org/2000/svg" xmlns:xlink="http://www.w3.org/1999/xlink">
    <symbol id="apple" viewBox="0 0 512.003 512.003">
      <g>
    <path d="M351.98,0c-27.296,1.888-59.2,19.36-77.792,42.112c-16.96,20.64-30.912,51.296-25.472,81.088
      c29.824,0.928,60.64-16.96,78.496-40.096C343.916,61.568,356.556,31.104,351.98,0z"/>
    </g>

    <g>
      <path d="M459.852,171.776c-26.208-32.864-63.04-51.936-97.824-51.936c-45.92,0-65.344,21.984-97.248,21.984
        c-32.896,0-57.888-21.92-97.6-21.92c-39.008,0-80.544,23.84-106.88,64.608c-37.024,57.408-30.688,165.344,29.312,257.28
        c21.472,32.896,50.144,69.888,87.648,70.208c33.376,0.32,42.784-21.408,88-21.632c45.216-0.256,53.792,21.92,87.104,21.568
        c37.536-0.288,67.776-41.28,89.248-74.176c15.392-23.584,21.12-35.456,33.056-62.08
        C387.852,342.624,373.932,219.168,459.852,171.776z"/>
      </g>
    </symbol>

    <symbol id="android" viewBox="0 0 512.034 512.034">
      <g>
    <path d="M362.684,192.034H149.35c-5.888,0-10.667,4.779-10.667,10.667v170.667c0,25.771,18.347,47.296,42.667,52.267v54.4
      c0,17.643,14.357,32,32,32c17.643,0,32-14.357,32-32v-53.333h21.333v53.333c0,17.643,14.357,32,32,32s32-14.357,32-32v-54.4
      c24.32-4.949,42.667-26.496,42.667-52.267V202.701C373.35,196.792,368.572,192.034,362.684,192.034z"/>
    </g>

    <g>
      <path d="M311.846,56.845l17.984-41.963c2.325-5.419-0.192-11.669-5.611-13.995c-5.355-2.347-11.691,0.171-13.995,5.611
        l-17.984,41.984c-11.413-3.712-23.573-5.781-36.203-5.781c-12.629,0-24.789,2.069-36.203,5.781L201.809,6.498
        c-2.304-5.44-8.64-7.979-13.995-5.611c-5.419,2.325-7.915,8.597-5.589,13.995l17.984,41.963
        c-36.629,19.883-61.525,58.688-61.525,103.189c0,5.888,4.779,10.667,10.667,10.667h213.333c5.888,0,10.667-4.779,10.667-10.667
        C373.35,115.533,348.454,76.728,311.846,56.845z M213.35,128.034c-5.888,0-10.667-4.779-10.667-10.667s4.779-10.667,10.667-10.667
        s10.667,4.779,10.667,10.667S219.238,128.034,213.35,128.034z M298.684,128.034c-5.888,0-10.667-4.779-10.667-10.667
        s4.779-10.667,10.667-10.667s10.667,4.779,10.667,10.667S304.572,128.034,298.684,128.034z"/>
      </g>
      <g>
        <path d="M426.684,192.034c-17.643,0-32,14.357-32,32v106.667c0,17.643,14.357,32,32,32c17.643,0,32-14.357,32-32V224.034
          C458.684,206.392,444.327,192.034,426.684,192.034z"/>
        </g>


        <g>
          <path d="M85.35,192.034c-17.643,0-32,14.357-32,32v106.667c0,17.643,14.357,32,32,32c17.643,0,32-14.357,32-32V224.034
            C117.35,206.392,102.993,192.034,85.35,192.034z"/>

          </g>
    </symbol>
    <symbol id="windows" viewBox="0 0 512 512">
        <g>
    <polygon points="0,80 0,240 224,240 224,52"/>
  </g>
  <g><polygon points="256,48 256,240 512,240 512,16"/></g>
  <g><polygon points="256,272 256,464 512,496 512,272"/></g>
  <g><polygon points="0,272 0,432 224,460 224,272"/></g>
    </symbol>
  </svg>